<svg xmlns="http://www.w3.org/2000/svg" viewBox="0 0 104 64">
  <path fill="#2E77BC" d="M104,56c0,4.4-3.6,8-8,8H8c-4.4,0-8-3.6-8-8V8c0-4.4,3.6-8,8-8h88c4.4,0,8,3.6,8,8V56z"/>
  <path fill="#FFFFFF" d="M54.6,29.3l2.1-5.3l2.1,5.3H54.6z M86.4,25.3l-3.4,8.2h-2.2l-3.3-8.2v8.2h-4.4l-0.8-2.1h-4.5l-0.8,2.1h-2.5 c-1.7,0-3.8-0.4-5-1.6c-1.2-1.2-1.8-2.9-1.8-5.5c0-2.1,0.4-4.1,1.9-5.6c1.1-1.1,2.8-1.6,5.2-1.6h3.3v2h-3.2 c-1.2,0-1.9,0.2-2.6,0.8c-0.7,0.7-1.1,2-1.1,3.7c0,1.7,0.3,3,1,3.7c0.6,0.6,1.6,0.7,2.6,0.7h1.7l5.2-10.9h3.5l6.2,14.7v-14.7h3.6 l3.3,7.9l3-7.9h3.6v16.4h-2.4V25.3z M41.1,33.5h-2.5l-4.5-7.4l-2,2.2v5.2h-4.8V17.1h4.8v6.5l6-6.5h2.9l-6.2,6.7L41.1,33.5z M19.2,33.5l-0.8-2.1h-4.5l-0.8,2.1H8.5l5.2-12.4c0.5-1.1,1-2,2.2-2h2.6c1.2,0,1.7,0.9,2.2,2l5.2,12.4H19.2z M14.8,29.3h3.7 l-1.9-4.7L14.8,29.3z"/>
</svg>