<svg xmlns="http://www.w3.org/2000/svg" viewBox="0 0 131.39 86.9">
  <path fill="#FF5F00" d="M48.37,15.14h34.66v56.61H48.37z"/>
  <path fill="#EB001B" d="M51.94,43.45c0-11.52,5.39-21.77,13.75-28.31C58.96,8.92,50.5,5.88,41.39,5.88 C18.54,5.88,0,24.42,0,47.27C0,70.12,18.54,88.66,41.39,88.66c9.11,0,17.57-3.04,24.3-9.26C57.33,65.22,51.94,54.97,51.94,43.45z"/>
  <path fill="#F79E1B" d="M131.39,47.27c0,22.85-18.54,41.39-41.39,41.39c-9.11,0-17.57-3.04-24.3-9.26 c8.36-6.54,13.75-16.79,13.75-28.31c0-11.52-5.39-21.77-13.75-28.31C72.43,8.92,80.89,5.88,90,5.88 C112.85,5.88,131.39,24.42,131.39,47.27z"/>
</svg>