<svg xmlns="http://www.w3.org/2000/svg" viewBox="0 0 1000 324.68">
  <path fill="#1434CB" d="M651.19,0,554.77,324.68h-82L576.24,0ZM807,209.67c32.79-17.11,54.73-47.07,54.73-98.94,0-72.62-85.33-110.73-171.84-110.73H574.69L475,324.68h97.89l35.47-97.89h48.42c14.49,0,23.63,8.56,20.82,25.67l-14.49,72.22h97.89l16.11-79.6C780.12,227.95,789.26,216.21,807,209.67ZM654.29,159.07H603.69l31.17-86.15h50.6c26.44,0,43.74,12.85,43.74,34.28C729.2,137.64,696.41,159.07,654.29,159.07ZM381.86,0,236.23,324.68H134.53L62.31,69.4C115.85,86.51,188.07,126,214.51,166.63l18.3,255.28h97.89L485.94,0Z"/>
</svg>